<svg xmlns="http://www.w3.org/2000/svg" viewBox="0 0 494.08 90.32"><defs><style>.cls-1,.cls-4{fill:#0e75ba;}.cls-2,.cls-3,.cls-6{fill:none;}.cls-2,.cls-3,.cls-4{stroke:#0e75ba;}.cls-2,.cls-3,.cls-4,.cls-6,.cls-7{stroke-miterlimit:10;}.cls-2,.cls-4,.cls-6,.cls-7{stroke-width:3px;}.cls-5,.cls-7{fill:#585859;}.cls-6,.cls-7{stroke:#585859;}</style></defs><title>alwaysrightfin</title><g id="Layer_14" data-name="Layer 14"><ellipse class="cls-1" cx="45.51" cy="23.8" rx="6.32" ry="6.29"/><ellipse class="cls-1" cx="45.12" cy="45.29" rx="6.32" ry="6.29"/><ellipse class="cls-1" cx="64.09" cy="6.29" rx="6.32" ry="6.29"/><ellipse class="cls-1" cx="25.48" cy="6.29" rx="6.32" ry="6.29"/><ellipse class="cls-1" cx="45.12" cy="63.88" rx="6.32" ry="6.29"/><ellipse class="cls-1" cx="64.23" cy="84.03" rx="6.32" ry="6.29"/><ellipse class="cls-1" cx="25.02" cy="83.31" rx="6.32" ry="6.29"/><polyline class="cls-2" points="29.41 10.13 40.16 20.47 49.69 20.47 61.9 6.29"/><polyline class="cls-2" points="29.13 79.17 42.2 66.7 27.33 80.88"/><path class="cls-3" d="M84.63,127.7" transform="translate(-37 -61)"/><path class="cls-2" d="M84.63,127.7" transform="translate(-37 -61)"/><line class="cls-4" x1="46.6" y1="65.97" x2="61.48" y2="81.02"/><ellipse class="cls-5" cx="6.82" cy="16.06" rx="6.32" ry="6.29"/><ellipse class="cls-5" cx="25.8" cy="34.63" rx="6.32" ry="6.29"/><ellipse class="cls-5" cx="64.23" cy="34.63" rx="6.32" ry="6.29"/><ellipse class="cls-5" cx="83.09" cy="16.02" rx="6.32" ry="6.29"/><ellipse class="cls-5" cx="6.86" cy="34.92" rx="6.32" ry="6.29"/><ellipse class="cls-5" cx="6.32" cy="54.21" rx="6.32" ry="6.29"/><ellipse class="cls-5" cx="82.7" cy="54.21" rx="6.32" ry="6.29"/><ellipse class="cls-5" cx="64.13" cy="54.53" rx="6.32" ry="6.29"/><ellipse class="cls-5" cx="25.62" cy="54.63" rx="6.32" ry="6.29"/><ellipse class="cls-5" cx="6.49" cy="73.8" rx="6.32" ry="6.29"/><ellipse class="cls-5" cx="82.95" cy="74.03" rx="6.32" ry="6.29"/><ellipse class="cls-5" cx="82.7" cy="35.88" rx="6.32" ry="6.29"/><line class="cls-6" x1="6.49" y1="39" x2="6.86" y2="51.58"/><line class="cls-6" x1="82.79" y1="38.94" x2="83.17" y2="51.51"/><line class="cls-6" x1="81.25" y1="72.35" x2="65.4" y2="56.68"/><line class="cls-6" x1="24.02" y1="33.53" x2="8.17" y2="17.86"/><line class="cls-6" x1="7.4" y1="71.59" x2="23.86" y2="56.56"/><line class="cls-6" x1="63.32" y1="34.65" x2="79.78" y2="19.62"/></g><g id="Layer_15" data-name="Layer 15"><path class="cls-1" d="M147.38,75.69a17.79,17.79,0,0,0-12.58,9.52c-2.3,4.72-2.5,6.67-2.5,26.74V130h7.14V112.62c0-9.52.2-18.57.4-20,.67-4.64,3.13-8.21,6.71-9.68a13.14,13.14,0,0,1,8.81.24,10.82,10.82,0,0,1,5.08,5.16c.87,2.1,1.83,8.33,1.47,9.76l-.24,1h-19v6.35h9.48c8.29,0,9.52.08,9.72.63.12.36.24,5.87.24,12.3V130h7.22l-.2-19.32c-.2-20.91-.2-21.07-2.46-25.51a15.44,15.44,0,0,0-5.83-6.75A19,19,0,0,0,147.38,75.69Z" transform="translate(-37 -61)"/><path class="cls-1" d="M177.14,103.22V130h6.75V76.44h-6.75Z" transform="translate(-37 -61)"/><path class="cls-1" d="M260.86,92.94a17.57,17.57,0,0,0-12.22,9.13c-4.8,9.56-1,22.22,7.94,26.7,5.63,2.82,12.86,2.46,17.1-.91.71-.56.83-1.63.71-7.18l0-1.15L272.88,121c-3.06,2.94-6.47,4-10.12,3.09a11.75,11.75,0,0,1-8.21-6.75c-.87-1.86-1-2.74-1-5.75,0-4,.71-6.11,3-8.65s4.44-3.57,8.09-3.77a21.43,21.43,0,0,1,4.88.28,11.27,11.27,0,0,1,6.67,5.2l1.19,2.18.12,11.59L277.6,130h6.27V118.18c0-13-.2-14.32-2.34-17.82-2.42-3.89-6.19-6.35-11.47-7.46A19.51,19.51,0,0,0,260.86,92.94Z" transform="translate(-37 -61)"/><path class="cls-1" d="M192.77,93.66c-.12.32-.16,6.59-.08,14,.12,13,.16,13.45,1,15.39a14.55,14.55,0,0,0,5.44,6c5,2.86,12.3,2,16.07-1.9l1.39-1.43,1.59,1.55c4,3.85,10.87,4.64,15.91,1.79a14.17,14.17,0,0,0,5.55-6.39c.67-1.79.75-3.13.75-15.63V93.3h-6.35l-.2,13.09c-.2,14.16-.24,14.28-2.5,16.39-2,1.9-6.47,2-8.65.2-2.5-2.14-2.54-2.18-2.66-16.7l-.12-13.21-3.25.12-3.25.12-.2,12.9c-.16,10.75-.32,13.13-.83,14.32a6.78,6.78,0,0,1-12.62-1c-.28-1-.44-6.15-.44-14V93.1h-3.17C193.8,93.1,192.93,93.26,192.77,93.66Z" transform="translate(-37 -61)"/><path class="cls-1" d="M291.09,106.87l.12,13.81,1.27,2.42a14.46,14.46,0,0,0,9,7.26l1.47.52v15.83l3.29-.12,3.25-.12.2-7.86.2-7.86,2.3-1a13.13,13.13,0,0,0,6.35-4.56c2.82-3.77,2.82-3.89,3-18.77l.12-13.41-3.29.12L315,93.3l-.2,12.5c-.16,11.19-.28,12.66-1,14-2.18,4.4-8.25,5.87-12.66,3.06-3.13-2-3.21-2.38-3.45-16.86l-.2-12.7-3.29-.12L291,93.06Z" transform="translate(-37 -61)"/><path class="cls-1" d="M336.84,93.5c-5.67.83-9,4.32-9,9.48a8.54,8.54,0,0,0,3.09,6.71c2.06,1.83,3.65,2.54,10.79,4.8,8.05,2.54,9.72,3.77,9,6.71-.44,2.14-1.07,2.26-12.5,2.46l-10.51.2-.12,3.09-.12,3.09,11.63-.12,11.63-.12,2.18-1.23a9.69,9.69,0,0,0,1-16.43c-2.38-1.63-4.29-2.42-10.75-4.36-5.91-1.79-6.94-2.26-7.94-3.77a2.12,2.12,0,0,1-.16-2.34c.63-2,1.86-2.22,12.22-2.22h8.81V93.1l-8.61,0C342.71,93.18,337.95,93.34,336.84,93.5Z" transform="translate(-37 -61)"/><path class="cls-1" d="M434.5,105.5a5.06,5.06,0,0,1-2.36-.47l-1.07.54v2.49l5.88-2.62Z" transform="translate(-37 -61)"/></g><g id="Layer_16" data-name="Layer 16"><path class="cls-7" d="M379.8,75.19l-3,.6a16.22,16.22,0,0,0-10.2,7.5A26.55,26.55,0,0,0,365,87.41c-.79,2.58-.83,3.53-.83,22.5v19.8h7.14v-20c0-21.43,0-21.43,2.14-24.2,2.62-3.41,8.81-4.68,12.78-2.62,6.59,3.37,6.51,12.3-.12,15.32-1.86.87-3,1.07-6.94,1.23l-4.68.2v6.63h5.08c7.42,0,9.76.91,11.59,4.56,1,1.94,1,2.22,1,10.44v8.45l3.57-.12,3.57-.12v-8.33c0-10.32-.28-12.3-1.9-14.76a11,11,0,0,0-4.36-3.81c-.28-.08.28-.91,1.35-2,3.06-3.06,3.73-4.84,3.73-10,0-4-.12-4.56-1.11-6.63A18.73,18.73,0,0,0,390,77C387.26,75.59,382.26,74.72,379.8,75.19Z" transform="translate(-37 -61)"/><path class="cls-7" d="M470.06,102.93v26.78h6.67l.16-12c.16-13.13.2-13.45,2.66-16.27,1.79-2,4.13-2.82,7.58-2.58,3.17.24,5.2,1.35,6.55,3.57.75,1.23.79,2.26,1,14.2l.2,12.9,3.53.12,3.49.12-.16-13c-.16-12.34-.24-13.17-1.11-15.67-1.63-4.76-4.68-7.38-10-8.49-4.6-1-9-.24-12.1,2.1a6.19,6.19,0,0,1-1.47.91,84,84,0,0,1-.28-9.72V76.15h-6.75Z" transform="translate(-37 -61)"/><path class="cls-7" d="M411.54,81.07c-2.82,1.23-2.9,5.52-.12,7.14a3.9,3.9,0,0,0,5.87-3.33c0-2.06-.52-3-2-3.77A3.66,3.66,0,0,0,411.54,81.07Z" transform="translate(-37 -61)"/><path class="cls-7" d="M509.82,102.61c.12,18.85.12,19,1,20.95a10.22,10.22,0,0,0,4.64,5.08c1.39.75,2.38.87,7.86,1l6.23.16v-6.43h-4.76c-5.75,0-7.34-.56-8-2.74-.24-.87-.36-5.32-.28-11.35l.12-9.92,6.47-.12,6.43-.08V92.81H516.49V83.68H509.7Z" transform="translate(-37 -61)"/><path class="cls-7" d="M440.7,92.85a17.94,17.94,0,0,0-11.94,9.64c-1.59,3.33-2.06,6.15-1.86,10.63.16,3.45.36,4.21,1.63,6.75a18.07,18.07,0,0,0,13.85,10.28,18.45,18.45,0,0,0,10.16-1.23l1.67-.75v-3.37a19.58,19.58,0,0,0-.16-3.41c-.08,0-1.35.56-2.86,1.27a10.1,10.1,0,0,1-5.67,1.23c-5.44,0-9.8-3-11.35-7.62s-.16-11.19,3.13-14.44c2.18-2.18,3.61-2.78,7.18-3,4.13-.24,6.59.75,9.13,3.57,3.06,3.37,3.37,5.16,3.37,17.93s-.24,14.13-3.13,16.9c-2.5,2.42-5.2,3.37-9.56,3.37a34.32,34.32,0,0,1-6.67-.75c-3.77-.87-3.77-.91-4.4,2.14a16.44,16.44,0,0,1-.63,2.42c-.44,1.11,6.51,2.7,11.94,2.74,7.86,0,14.13-3.61,17.14-9.92,1.9-4,2.14-6.39,2-19.68l-.12-11.86-1.47-3a17.66,17.66,0,0,0-12.22-10A16.26,16.26,0,0,0,440.7,92.85Z" transform="translate(-37 -61)"/><path class="cls-7" d="M410.15,111.26v18.49l3.29-.12,3.25-.12V93l-3.25-.12-3.29-.12Z" transform="translate(-37 -61)"/></g></svg>